# xmcd
#
# Track frame offsets: 
#        150
#        9890
#        24140
#        35885
#        47735
#        58502
#        70690
#        81317
#        91885
#        108942
#        123370
#        135065
#        149300
#        161567
#        175437
#        190142
#        202580
#        217520
#        231127
#        245547
#        258167
#        271047
#
# Disc length: 3786 seconds
#
# Revision: 4
# Processed by: cddbd v1.5.2PL0 Copyright (c) Steve Scherf et al.
# Submitted via: ExactAudioCopy v0.99pb5
#
DISCID=120ec816
DTITLE=George Jones - Anniversary (10 Years Of Hits)
DYEAR=2003
DGENRE=Country
TTITLE0=We Can Make It
TTITLE1=Loving You Could Never Be Better
TTITLE2=A Picture Of Me (Without You)
TTITLE3=What My Woman Can't Do
TTITLE4=Nothing Ever Hurt Me (Half As Bad As Losing You)
TTITLE5=Once You've Had The Best
TTITLE6=Her Name Is...
TTITLE7=Old King Kong
TTITLE8=Bartender Blues (With James Taylor)
TTITLE9=I'll Just Take It Out In Love
TTITLE10=Someday My Day Will Come
TTITLE11=The Grand Tour
TTITLE12=The Door
TTITLE13=These Days (I Barely Get By)
TTITLE14=Memories Of Us
TTITLE15=The Battle
TTITLE16=He Stopped Loving Her Today
TTITLE17=I'm Not Ready Yet
TTITLE18=If Drinkin' Don't Kill Me (Her Memory Will)
TTITLE19=Good Ones And Bad Ones
TTITLE20=Still Doin' Time
TTITLE21=Same Ole Me (With The Oak Ridge Boys)
EXTD=
EXTT0=
EXTT1=
EXTT2=
EXTT3=
EXTT4=
EXTT5=
EXTT6=
EXTT7=
EXTT8=
EXTT9=
EXTT10=
EXTT11=
EXTT12=
EXTT13=
EXTT14=
EXTT15=
EXTT16=
EXTT17=
EXTT18=
EXTT19=
EXTT20=
EXTT21=
PLAYORDER=
